<svg width="90" height="90" viewBox="0 0 90 90" fill="none" xmlns="http://www.w3.org/2000/svg">
  <path d="M45 10C64.3333 10 80 25.6667 80 45C80 64.3333 64.3333 80 45 80C25.6667 80 10 64.3333 10 45C10 25.6667 25.6667 10 45 10ZM45 15C32.1667 15 22 24.1667 22 35C22 45.8333 32.1667 55 45 55C57.8333 55 68 45.8333 68 35C68 24.1667 57.8333 15 45 15Z" fill="#F08030"/>
  <path d="M45 5C62.6667 5 75 17.3333 75 35C75 52.6667 62.6667 65 45 65C27.3333 65 15 52.6667 15 35C15 17.3333 27.3333 5 45 5Z" fill="#FFF5E0"/>
  <path d="M45 5C62.6667 5 75 17.3333 75 35C75 52.6667 62.6667 65 45 65C27.3333 65 15 52.6667 15 35C15 17.3333 27.3333 5 45 5Z" stroke="#000000" stroke-width="2"/>
  <path d="M40 25V35H50V25H40Z" fill="#000000"/>
  <path d="M40 45V55H50V45H40Z" fill="#000000"/>
  <path d="M35 40H55V45H35V40Z" fill="#000000"/>
  <circle cx="45" cy="35" r="10" fill="#000000"/>
</svg>
